<?xml version="1.0" encoding="UTF-8" standalone="no"?>
<!-- Created with Inkscape (http://www.inkscape.org/) -->

<svg
   xmlns:dc="http://purl.org/dc/elements/1.1/"
   xmlns:cc="http://creativecommons.org/ns#"
   xmlns:rdf="http://www.w3.org/1999/02/22-rdf-syntax-ns#"
   xmlns:svg="http://www.w3.org/2000/svg"
   xmlns="http://www.w3.org/2000/svg"
   xmlns:sodipodi="http://sodipodi.sourceforge.net/DTD/sodipodi-0.dtd"
   xmlns:inkscape="http://www.inkscape.org/namespaces/inkscape"
   width="210mm"
   height="297mm"
   viewBox="0 0 210 297"
   version="1.1"
   id="svg8"
   inkscape:version="0.92.4 (5da689c313, 2019-01-14)"
   sodipodi:docname="Logowhite.svg">
  <defs
     id="defs2">
    <marker
       inkscape:stockid="DiamondS"
       orient="auto"
       refY="0.0"
       refX="0.0"
       id="marker1223"
       style="overflow:visible"
       inkscape:isstock="true">
      <path
         id="path1221"
         d="M 0,-7.0710768 L -7.0710894,0 L 0,7.0710589 L 7.0710462,0 L 0,-7.0710768 z "
         style="fill-rule:evenodd;stroke:#000000;stroke-width:1pt;stroke-opacity:1;fill:#000000;fill-opacity:1"
         transform="scale(0.2)" />
    </marker>
    <marker
       inkscape:stockid="DiamondS"
       orient="auto"
       refY="0.0"
       refX="0.0"
       id="DiamondS"
       style="overflow:visible"
       inkscape:isstock="true">
      <path
         id="path992"
         d="M 0,-7.0710768 L -7.0710894,0 L 0,7.0710589 L 7.0710462,0 L 0,-7.0710768 z "
         style="fill-rule:evenodd;stroke:#000000;stroke-width:1pt;stroke-opacity:1;fill:#000000;fill-opacity:1"
         transform="scale(0.2)" />
    </marker>
    <marker
       inkscape:stockid="DiamondL"
       orient="auto"
       refY="0.0"
       refX="0.0"
       id="DiamondL"
       style="overflow:visible"
       inkscape:isstock="true">
      <path
         id="path986"
         d="M 0,-7.0710768 L -7.0710894,0 L 0,7.0710589 L 7.0710462,0 L 0,-7.0710768 z "
         style="fill-rule:evenodd;stroke:#000000;stroke-width:1pt;stroke-opacity:1;fill:#000000;fill-opacity:1"
         transform="scale(0.8)" />
    </marker>
  </defs>
  <sodipodi:namedview
     id="base"
     pagecolor="#ffffff"
     bordercolor="#666666"
     borderopacity="1.0"
     inkscape:pageopacity="0.0"
     inkscape:pageshadow="2"
     inkscape:zoom="1.4142136"
     inkscape:cx="488.8484"
     inkscape:cy="794.20641"
     inkscape:document-units="mm"
     inkscape:current-layer="g878"
     showgrid="false"
     inkscape:snap-global="false"
     inkscape:window-width="2560"
     inkscape:window-height="1417"
     inkscape:window-x="1672"
     inkscape:window-y="-8"
     inkscape:window-maximized="1" />
  <metadata
     id="metadata5">
    <rdf:RDF>
      <cc:Work
         rdf:about="">
        <dc:format>image/svg+xml</dc:format>
        <dc:type
           rdf:resource="http://purl.org/dc/dcmitype/StillImage" />
        <dc:title></dc:title>
      </cc:Work>
    </rdf:RDF>
  </metadata>
  <g
     inkscape:label="Ebene 1"
     inkscape:groupmode="layer"
     id="layer1">
    <g
       id="g878"
       transform="matrix(0.83364503,0,0,1.0011089,16.998357,-0.12946579)">
      <ellipse
         ry="2.7136948"
         rx="3.5138643"
         cy="122.062"
         cx="73.293762"
         id="ellipse1406"
         style="opacity:0.747;fill:#00ff00;fill-opacity:0.99571737;stroke:none;stroke-width:1.17981601;stroke-linecap:round;stroke-linejoin:round;stroke-miterlimit:4;stroke-dasharray:2.35963204, 1.17981602, 0.58990801, 1.17981602;stroke-dashoffset:35.62836075;stroke-opacity:1;paint-order:stroke fill markers" />
      <ellipse
         style="opacity:0.747;fill:#ff0000;fill-opacity:0.99571737;stroke:none;stroke-width:1.17981601;stroke-linecap:round;stroke-linejoin:round;stroke-miterlimit:4;stroke-dasharray:2.35963204, 1.17981602, 0.58990801, 1.17981602;stroke-dashoffset:35.62836075;stroke-opacity:1;paint-order:stroke fill markers"
         id="ellipse1404"
         cx="79.01796"
         cy="119.27752"
         rx="3.5138643"
         ry="2.7136948" />
      <ellipse
         ry="2.7136948"
         rx="3.5138643"
         cy="112.95343"
         cx="73.350433"
         id="ellipse1402"
         style="opacity:0.747;fill:#ffff00;fill-opacity:0.99571737;stroke:none;stroke-width:1.17981601;stroke-linecap:round;stroke-linejoin:round;stroke-miterlimit:4;stroke-dasharray:2.35963204, 1.17981602, 0.58990801, 1.17981602;stroke-dashoffset:35.62836075;stroke-opacity:1;paint-order:stroke fill markers" />
      <ellipse
         style="opacity:0.747;fill:#0000ff;fill-opacity:1;stroke:none;stroke-width:1.17981601;stroke-linecap:round;stroke-linejoin:round;stroke-miterlimit:4;stroke-dasharray:2.35963204, 1.17981602, 0.58990801, 1.17981602;stroke-dashoffset:35.62836075;stroke-opacity:1;paint-order:stroke fill markers"
         id="path1400"
         cx="66.889458"
         cy="116.06828"
         rx="3.5138643"
         ry="2.7136948" />
      <g
         id="g835"
         transform="matrix(0.27043731,0.07523447,0,0.225199,16.245384,-100.60752)"
         style="fill:#f9f9f9">
        <path
           id="path833"
           d="m 54.241,842.41 c -0.47597,-0.007 -0.95982,0.005 -1.438,0.0167 -3.8255,0.097 -7.7038,0.77663 -11.333,1.6092 -3.3992,0.77986 -7.0506,2.0811 -9.3643,4.6907 -3.6256,4.0892 -5.5124,15.425 -5.5124,15.425 0,0 -10.619,7.0994 -14.329,12.138 -3.4896,4.7395 -5.3216,10.576 -6.8991,16.246 -1.0445,3.7543 -1.291,7.6918 -1.6435,11.573 -2.3278,25.63 -5.0152,48.958 -3.0301,77.157 0.70842,10.064 5.0934,14.999 11.025,19.567 5.4892,4.2276 13.256,6.215 20.115,5.2385 5.3841,-0.7665 10.178,-4.4895 14.004,-8.3542 7.9784,-8.0589 15.483,-28.016 17.137,-29.394 1.6533,-1.3777 3.8519,-4.6907 3.8519,-4.6907 0,0 5.2928,4.7838 8.5426,6.0603 4.5704,1.7951 9.7365,2.5903 14.603,1.9345 6.323,-0.85208 12.786,-3.2986 17.633,-7.4469 3.447,-2.95 7.173,-11.573 7.173,-11.573 h 26.449 c 0,0 3.726,8.6227 7.173,11.573 4.8474,4.1484 11.31,6.5948 17.633,7.4469 4.8663,0.65579 10.032,-0.13934 14.603,-1.9345 3.2498,-1.2764 8.5426,-6.0603 8.5426,-6.0603 0,0 2.1986,3.313 3.8518,4.6907 1.6533,1.3778 9.141,21.335 17.119,29.394 3.8262,3.8648 8.6367,7.5878 14.021,8.3542 6.8593,0.9765 14.626,-1.0109 20.115,-5.2385 5.9315,-4.5682 10.316,-9.5038 11.025,-19.567 1.985,-28.199 -0.70235,-51.527 -3.0301,-77.157 -0.35248,-3.8809 -0.61614,-7.8184 -1.6606,-11.573 -1.5775,-5.6702 -3.3924,-11.507 -6.882,-16.246 -3.7096,-5.0382 -14.329,-12.138 -14.329,-12.138 0,0 -1.9041,-11.335 -5.5296,-15.425 -2.3137,-2.6096 -5.9479,-3.9109 -9.3472,-4.6907 -7.2584,-1.6652 -15.525,-2.7085 -22.341,0.29103 -3.9204,1.7252 -6.595,6.0577 -8.7994,9.3643 -2.2044,3.3066 -3.304,13.781 -3.304,13.781 l -38.313,-0.15416 v -0.11974 l -13.764,0.0514 -13.781,-0.0514 v 0.11974 l -38.313,0.15416 c 0,0 -1.0996,-10.475 -3.304,-13.781 -2.2044,-3.3066 -4.879,-7.6391 -8.7994,-9.3643 -2.9821,-1.3123 -6.2379,-1.8667 -9.5698,-1.9174 z m 155.5,27.511 c 5.1807,0 9.3814,4.2008 9.3814,9.3814 0,5.1807 -4.2008,9.3814 -9.3814,9.3814 -5.1807,0 -9.3814,-4.2008 -9.3814,-9.3814 0,-5.1807 4.2007,-9.3814 9.3814,-9.3814 z m -171.31,5.307 H 53.53 v 11.23 c 0,0 -5.4723,7.2084 -7.5496,7.1217 -2.2054,-0.092 -7.5496,-7.1217 -7.5496,-7.1217 z m 148.55,14.62 c 5.1807,0 9.3814,4.2008 9.3814,9.3814 0,5.1807 -4.2008,9.3814 -9.3814,9.3814 -5.1807,0 -9.3814,-4.2008 -9.3814,-9.3814 0,-5.1807 4.2008,-9.3814 9.3814,-9.3814 z m 45.538,0 c 5.1807,0 9.3814,4.2008 9.3814,9.3814 0,5.1807 -4.2007,9.3814 -9.3814,9.3814 -5.1807,0 -9.3814,-4.2008 -9.3814,-9.3814 0,-5.1807 4.2007,-9.3814 9.3814,-9.3814 z m -208.86,0.68478 h 11.23 c 0,0 7.0296,5.3614 7.1217,7.5668 0.0868,2.0773 -7.1217,7.5496 -7.1217,7.5496 h -11.23 z m 33.417,0 h 11.23 v 15.116 h -11.23 c 0,0 -7.2084,-5.4723 -7.1217,-7.5496 0.092,-2.2054 7.1217,-7.5668 7.1217,-7.5668 z m 88.705,4.023 14.687,4.8106 -14.687,4.8277 z m -51.345,0.33876 h 14.633 v 8.9607 H 94.436 Z m -48.453,7.7245 c 2.0773,-0.0868 7.5496,7.1217 7.5496,7.1217 v 11.23 h -15.099 v -11.23 c 0,0 5.3442,-7.0296 7.5496,-7.1217 z m 163.76,7.173 c 5.1807,0 9.3814,4.2008 9.3814,9.3814 0,5.1807 -4.2008,9.3814 -9.3814,9.3814 -5.1807,0 -9.3814,-4.2008 -9.3814,-9.3814 0,-5.1807 4.2007,-9.3814 9.3814,-9.3814 z m -123.66,16.4 c 10.12,0 18.318,8.1976 18.318,18.318 0,10.1204 -8.1976,18.335 -18.318,18.335 -10.1204,0 -18.318,-8.2148 -18.318,-18.335 0,-10.1202 8.1977,-18.318 18.318,-18.318 z m 82.721,0 c 10.12,0 18.318,8.1976 18.318,18.318 0,10.1204 -8.1976,18.335 -18.318,18.335 -10.1204,0 -18.318,-8.2148 -18.318,-18.335 0,-10.1202 8.1976,-18.318 18.318,-18.318 z"
           inkscape:connector-curvature="0"
           style="fill:#f9f9f9" />
      </g>
      <g
         id="g821"
         transform="matrix(-1.0853196,0,0,0.99945961,194.45805,-1.4480518)"
         style="stroke-width:1.58749998;stroke-miterlimit:4;stroke-dasharray:none;stroke:#ffffff">
        <path
           inkscape:connector-curvature="0"
           id="path815"
           d="M 85.044641,89.869046 V 165.84226 L 173.49409,142.1423"
           style="fill:none;stroke:#ffffff;stroke-width:1.58749998;stroke-linecap:butt;stroke-linejoin:miter;stroke-miterlimit:4;stroke-dasharray:none;stroke-opacity:1" />
        <path
           style="fill:none;stroke:#ffffff;stroke-width:1.58749998;stroke-linecap:butt;stroke-linejoin:miter;stroke-miterlimit:4;stroke-dasharray:none;stroke-opacity:1"
           d="M 172.78792,142.1375 V 66.164284 L 84.33847,89.864241"
           id="path817"
           inkscape:connector-curvature="0" />
      </g>
      <path
         style="fill:#1a1a1a;stroke:#ffffff;stroke-width:1.07470322;stroke-linecap:butt;stroke-linejoin:miter;stroke-miterlimit:4;stroke-dasharray:2.14940638, 1.07470318999999992, 0.53735158999999999, 1.07470318999999992;stroke-dashoffset:0;stroke-opacity:1"
         d="M 14.838566,77.325708 90.663693,96.035682"
         id="path829"
         inkscape:connector-curvature="0" />
      <path
         style="fill:#1a1a1a;stroke:#ffffff;stroke-width:1.07470322;stroke-linecap:butt;stroke-linejoin:miter;stroke-miterlimit:4;stroke-dasharray:2.14940638, 1.07470318999999992, 0.53735158999999999, 1.07470318999999992;stroke-dashoffset:0;stroke-opacity:1"
         d="m 14.838566,132.6206 75.825127,18.70998"
         id="path847"
         inkscape:connector-curvature="0" />
      <path
         inkscape:connector-curvature="0"
         id="path857"
         d="M 14.838566,84.046422 90.663693,102.75639"
         style="fill:#1a1a1a;stroke:#ffffff;stroke-width:1.07470322;stroke-linecap:butt;stroke-linejoin:miter;stroke-miterlimit:4;stroke-dasharray:2.14940638, 1.07470318999999992, 0.53735158999999999, 1.07470318999999992;stroke-dashoffset:0;stroke-opacity:1" />
      <path
         style="fill:#ededed;stroke:#ffffff;stroke-width:1.26031876;stroke-linecap:butt;stroke-linejoin:miter;stroke-miterlimit:4;stroke-dasharray:none;stroke-opacity:1;fill-opacity:1"
         d="M 5.498322,64.814644 1.9669526,67.270669 1.9156745,143.56839 5.5974518,140.3341 Z"
         id="path859"
         inkscape:connector-curvature="0"
         sodipodi:nodetypes="ccccc" />
      <path
         style="fill:#ededed;stroke:#ffffff;stroke-width:1.26375818;stroke-linecap:butt;stroke-linejoin:miter;stroke-miterlimit:4;stroke-dasharray:none;stroke-opacity:1;fill-opacity:1"
         d="M 2.5777877,144.64124 101.91344,169.30167 V 164.0078 L 7.0549221,140.45884 Z"
         id="path863"
         inkscape:connector-curvature="0" />
      <g
         transform="translate(17.764881,-1.5167098)"
         id="g827"
         style="stroke:#ffffff">
        <path
           inkscape:connector-curvature="0"
           id="path823"
           d="M 85.044641,89.869046 85.565622,165.80889 173.49409,142.1423"
           style="fill:none;stroke:#ffffff;stroke-width:1.90552914;stroke-linecap:butt;stroke-linejoin:miter;stroke-miterlimit:4;stroke-dasharray:none;stroke-opacity:1"
           sodipodi:nodetypes="ccc" />
        <path
           style="fill:none;stroke:#ffffff;stroke-width:1.90552914;stroke-linecap:butt;stroke-linejoin:miter;stroke-miterlimit:4;stroke-dasharray:none;stroke-opacity:1"
           d="M 172.78792,142.1375 V 66.164284 L 84.33847,89.864241"
           id="path825"
           inkscape:connector-curvature="0" />
      </g>
      <path
         style="fill:none;stroke:#ffffff;stroke-width:1.03187501;stroke-linecap:butt;stroke-linejoin:miter;stroke-miterlimit:4;stroke-dasharray:2.06375, 1.03187500000000010, 0.51593750000000005, 1.03187500000000010;stroke-dashoffset:0;stroke-opacity:1"
         d="M 179.20363,75.225578 109.33931,93.945667"
         id="path849"
         inkscape:connector-curvature="0" />
      <path
         inkscape:connector-curvature="0"
         id="path851"
         d="M 179.20363,83.919033 109.33931,102.63912"
         style="fill:none;stroke:#ffffff;stroke-width:1.03187501;stroke-linecap:butt;stroke-linejoin:miter;stroke-miterlimit:4;stroke-dasharray:2.06375, 1.03187500000000010, 0.51593750000000005, 1.03187500000000010;stroke-dashoffset:0;stroke-opacity:1" />
      <path
         style="fill:none;stroke:#ffffff;stroke-width:1.03187501;stroke-linecap:butt;stroke-linejoin:miter;stroke-miterlimit:4;stroke-dasharray:2.06375, 1.03187500000000010, 0.51593750000000005, 1.03187500000000010;stroke-dashoffset:0;stroke-opacity:1"
         d="M 179.20363,92.612483 109.33931,111.33257"
         id="path853"
         inkscape:connector-curvature="0" />
      <path
         inkscape:connector-curvature="0"
         id="path855"
         d="m 179.20363,101.30594 -69.86432,18.72008"
         style="fill:none;stroke:#ffffff;stroke-width:1.03187501;stroke-linecap:butt;stroke-linejoin:miter;stroke-miterlimit:4;stroke-dasharray:2.06375001, 1.03187500000000010, 0.51593750000000005, 1.03187500000000010;stroke-dashoffset:10.31875038;stroke-opacity:1" />
      <path
         style="fill:#f2f2f2;stroke:#ffffff;stroke-width:1.21339595;stroke-linecap:butt;stroke-linejoin:miter;stroke-miterlimit:4;stroke-dasharray:none;stroke-opacity:1"
         d="M 194.49964,144.62296 102.973,169.29673 V 164 l 87.40146,-23.5617 z"
         id="path865"
         inkscape:connector-curvature="0" />
      <path
         style="fill:#f2f2f2;stroke:#ffffff;stroke-width:1.21009362;stroke-linecap:butt;stroke-linejoin:miter;stroke-miterlimit:4;stroke-dasharray:none;stroke-opacity:1;fill-opacity:1"
         d="m 192.07753,64.715747 2.88626,2.457353 0.0472,76.37238 -3.39234,-3.26944 z"
         id="path867"
         inkscape:connector-curvature="0"
         sodipodi:nodetypes="ccccc" />
    </g>
  </g>
</svg>
